<mxfile host="Electron" agent="Mozilla/5.0 (X11; Linux x86_64) AppleWebKit/537.36 (KHTML, like Gecko) draw.io/27.0.9 Chrome/134.0.6998.205 Electron/35.4.0 Safari/537.36" version="27.0.9">
  <diagram name="PÃ¡gina-1" id="gizZ-Q4pgNImtTXTVjy1">
    <mxGraphModel dx="2260" dy="608" grid="1" gridSize="10" guides="1" tooltips="1" connect="1" arrows="1" fold="1" page="1" pageScale="1" pageWidth="827" pageHeight="1169" math="0" shadow="0">
      <root>
        <mxCell id="0" />
        <mxCell id="1" parent="0" />
        <mxCell id="eqsoYd2ZVegS8Vd80nm1-1" value="&amp;lt;&amp;lt;Abstract&amp;gt;&amp;gt;&lt;div&gt;ControladorBase&lt;/div&gt;" style="swimlane;fontStyle=1;align=center;verticalAlign=top;childLayout=stackLayout;horizontal=1;startSize=50;horizontalStack=0;resizeParent=1;resizeParentMax=0;resizeLast=0;collapsible=1;marginBottom=0;whiteSpace=wrap;html=1;" vertex="1" parent="1">
          <mxGeometry x="130" y="20" width="330" height="160" as="geometry" />
        </mxCell>
        <mxCell id="eqsoYd2ZVegS8Vd80nm1-2" value="- modelo: Modelo&lt;div&gt;- vista: Vista&lt;/div&gt;&lt;div&gt;- controladorPrincipal: Controlador&lt;/div&gt;" style="text;strokeColor=none;fillColor=none;align=left;verticalAlign=top;spacingLeft=4;spacingRight=4;overflow=hidden;rotatable=0;points=[[0,0.5],[1,0.5]];portConstraint=eastwest;whiteSpace=wrap;html=1;" vertex="1" parent="eqsoYd2ZVegS8Vd80nm1-1">
          <mxGeometry y="50" width="330" height="60" as="geometry" />
        </mxCell>
        <mxCell id="eqsoYd2ZVegS8Vd80nm1-3" value="" style="line;strokeWidth=1;fillColor=none;align=left;verticalAlign=middle;spacingTop=-1;spacingLeft=3;spacingRight=3;rotatable=0;labelPosition=right;points=[];portConstraint=eastwest;strokeColor=inherit;" vertex="1" parent="eqsoYd2ZVegS8Vd80nm1-1">
          <mxGeometry y="110" width="330" height="8" as="geometry" />
        </mxCell>
        <mxCell id="eqsoYd2ZVegS8Vd80nm1-4" value="+ getControladorPrincipal(): Controlador&lt;div&gt;+ setControladorPrincipal(Controlador controlador): void&lt;/div&gt;" style="text;strokeColor=none;fillColor=none;align=left;verticalAlign=top;spacingLeft=4;spacingRight=4;overflow=hidden;rotatable=0;points=[[0,0.5],[1,0.5]];portConstraint=eastwest;whiteSpace=wrap;html=1;" vertex="1" parent="eqsoYd2ZVegS8Vd80nm1-1">
          <mxGeometry y="118" width="330" height="42" as="geometry" />
        </mxCell>
        <mxCell id="eqsoYd2ZVegS8Vd80nm1-5" value="&lt;div&gt;ControladorVentanas&lt;/div&gt;" style="swimlane;fontStyle=1;align=center;verticalAlign=top;childLayout=stackLayout;horizontal=1;startSize=30;horizontalStack=0;resizeParent=1;resizeParentMax=0;resizeLast=0;collapsible=1;marginBottom=0;whiteSpace=wrap;html=1;" vertex="1" parent="1">
          <mxGeometry x="-80" y="290" width="330" height="72" as="geometry" />
        </mxCell>
        <mxCell id="eqsoYd2ZVegS8Vd80nm1-8" value="+ llenarTablaProfesores(): void&lt;div&gt;+ limpiarFieldsLogin(): void&lt;/div&gt;" style="text;strokeColor=none;fillColor=none;align=left;verticalAlign=top;spacingLeft=4;spacingRight=4;overflow=hidden;rotatable=0;points=[[0,0.5],[1,0.5]];portConstraint=eastwest;whiteSpace=wrap;html=1;" vertex="1" parent="eqsoYd2ZVegS8Vd80nm1-5">
          <mxGeometry y="30" width="330" height="42" as="geometry" />
        </mxCell>
        <mxCell id="eqsoYd2ZVegS8Vd80nm1-11" style="edgeStyle=orthogonalEdgeStyle;rounded=0;orthogonalLoop=1;jettySize=auto;html=1;exitX=0.5;exitY=0;exitDx=0;exitDy=0;entryX=0.469;entryY=1.01;entryDx=0;entryDy=0;entryPerimeter=0;endArrow=block;endFill=0;" edge="1" parent="1" source="eqsoYd2ZVegS8Vd80nm1-5" target="eqsoYd2ZVegS8Vd80nm1-4">
          <mxGeometry relative="1" as="geometry" />
        </mxCell>
        <mxCell id="eqsoYd2ZVegS8Vd80nm1-16" value="&lt;div&gt;ControladorUsuarios&lt;/div&gt;" style="swimlane;fontStyle=1;align=center;verticalAlign=top;childLayout=stackLayout;horizontal=1;startSize=30;horizontalStack=0;resizeParent=1;resizeParentMax=0;resizeLast=0;collapsible=1;marginBottom=0;whiteSpace=wrap;html=1;" vertex="1" parent="1">
          <mxGeometry x="290" y="290" width="330" height="72" as="geometry" />
        </mxCell>
        <mxCell id="eqsoYd2ZVegS8Vd80nm1-17" value="+ llenarTablaProfesores(): void&lt;div&gt;+ limpiarFieldsLogin(): void&lt;/div&gt;" style="text;strokeColor=none;fillColor=none;align=left;verticalAlign=top;spacingLeft=4;spacingRight=4;overflow=hidden;rotatable=0;points=[[0,0.5],[1,0.5]];portConstraint=eastwest;whiteSpace=wrap;html=1;" vertex="1" parent="eqsoYd2ZVegS8Vd80nm1-16">
          <mxGeometry y="30" width="330" height="42" as="geometry" />
        </mxCell>
        <mxCell id="eqsoYd2ZVegS8Vd80nm1-19" style="edgeStyle=orthogonalEdgeStyle;rounded=0;orthogonalLoop=1;jettySize=auto;html=1;exitX=0.5;exitY=0;exitDx=0;exitDy=0;entryX=0.606;entryY=0.976;entryDx=0;entryDy=0;entryPerimeter=0;endArrow=block;endFill=0;" edge="1" parent="1" source="eqsoYd2ZVegS8Vd80nm1-16" target="eqsoYd2ZVegS8Vd80nm1-4">
          <mxGeometry relative="1" as="geometry" />
        </mxCell>
        <mxCell id="eqsoYd2ZVegS8Vd80nm1-20" value="Cliente" style="swimlane;fontStyle=1;align=center;verticalAlign=top;childLayout=stackLayout;horizontal=1;startSize=26;horizontalStack=0;resizeParent=1;resizeParentMax=0;resizeLast=0;collapsible=1;marginBottom=0;whiteSpace=wrap;html=1;" vertex="1" parent="1">
          <mxGeometry x="80" y="560" width="160" height="86" as="geometry" />
        </mxCell>
        <mxCell id="eqsoYd2ZVegS8Vd80nm1-21" value="+ field: type" style="text;strokeColor=none;fillColor=none;align=left;verticalAlign=top;spacingLeft=4;spacingRight=4;overflow=hidden;rotatable=0;points=[[0,0.5],[1,0.5]];portConstraint=eastwest;whiteSpace=wrap;html=1;" vertex="1" parent="eqsoYd2ZVegS8Vd80nm1-20">
          <mxGeometry y="26" width="160" height="26" as="geometry" />
        </mxCell>
        <mxCell id="eqsoYd2ZVegS8Vd80nm1-22" value="" style="line;strokeWidth=1;fillColor=none;align=left;verticalAlign=middle;spacingTop=-1;spacingLeft=3;spacingRight=3;rotatable=0;labelPosition=right;points=[];portConstraint=eastwest;strokeColor=inherit;" vertex="1" parent="eqsoYd2ZVegS8Vd80nm1-20">
          <mxGeometry y="52" width="160" height="8" as="geometry" />
        </mxCell>
        <mxCell id="eqsoYd2ZVegS8Vd80nm1-23" value="+ method(type): type" style="text;strokeColor=none;fillColor=none;align=left;verticalAlign=top;spacingLeft=4;spacingRight=4;overflow=hidden;rotatable=0;points=[[0,0.5],[1,0.5]];portConstraint=eastwest;whiteSpace=wrap;html=1;" vertex="1" parent="eqsoYd2ZVegS8Vd80nm1-20">
          <mxGeometry y="60" width="160" height="26" as="geometry" />
        </mxCell>
        <mxCell id="eqsoYd2ZVegS8Vd80nm1-25" value="Productos" style="swimlane;fontStyle=1;align=center;verticalAlign=top;childLayout=stackLayout;horizontal=1;startSize=26;horizontalStack=0;resizeParent=1;resizeParentMax=0;resizeLast=0;collapsible=1;marginBottom=0;whiteSpace=wrap;html=1;" vertex="1" parent="1">
          <mxGeometry x="430" y="560" width="160" height="86" as="geometry" />
        </mxCell>
        <mxCell id="eqsoYd2ZVegS8Vd80nm1-26" value="+ field: type" style="text;strokeColor=none;fillColor=none;align=left;verticalAlign=top;spacingLeft=4;spacingRight=4;overflow=hidden;rotatable=0;points=[[0,0.5],[1,0.5]];portConstraint=eastwest;whiteSpace=wrap;html=1;" vertex="1" parent="eqsoYd2ZVegS8Vd80nm1-25">
          <mxGeometry y="26" width="160" height="26" as="geometry" />
        </mxCell>
        <mxCell id="eqsoYd2ZVegS8Vd80nm1-27" value="" style="line;strokeWidth=1;fillColor=none;align=left;verticalAlign=middle;spacingTop=-1;spacingLeft=3;spacingRight=3;rotatable=0;labelPosition=right;points=[];portConstraint=eastwest;strokeColor=inherit;" vertex="1" parent="eqsoYd2ZVegS8Vd80nm1-25">
          <mxGeometry y="52" width="160" height="8" as="geometry" />
        </mxCell>
        <mxCell id="eqsoYd2ZVegS8Vd80nm1-28" value="+ method(type): type" style="text;strokeColor=none;fillColor=none;align=left;verticalAlign=top;spacingLeft=4;spacingRight=4;overflow=hidden;rotatable=0;points=[[0,0.5],[1,0.5]];portConstraint=eastwest;whiteSpace=wrap;html=1;" vertex="1" parent="eqsoYd2ZVegS8Vd80nm1-25">
          <mxGeometry y="60" width="160" height="26" as="geometry" />
        </mxCell>
        <mxCell id="eqsoYd2ZVegS8Vd80nm1-29" style="edgeStyle=orthogonalEdgeStyle;rounded=0;orthogonalLoop=1;jettySize=auto;html=1;entryX=0;entryY=0.5;entryDx=0;entryDy=0;endArrow=none;startFill=0;" edge="1" parent="1" source="eqsoYd2ZVegS8Vd80nm1-21" target="eqsoYd2ZVegS8Vd80nm1-26">
          <mxGeometry relative="1" as="geometry" />
        </mxCell>
        <mxCell id="eqsoYd2ZVegS8Vd80nm1-30" value="0..*" style="edgeLabel;html=1;align=center;verticalAlign=middle;resizable=0;points=[];" vertex="1" connectable="0" parent="eqsoYd2ZVegS8Vd80nm1-29">
          <mxGeometry x="0.8406" y="1" relative="1" as="geometry">
            <mxPoint x="-1" y="12" as="offset" />
          </mxGeometry>
        </mxCell>
        <mxCell id="eqsoYd2ZVegS8Vd80nm1-31" value="0..1" style="edgeLabel;html=1;align=center;verticalAlign=middle;resizable=0;points=[];" vertex="1" connectable="0" parent="eqsoYd2ZVegS8Vd80nm1-29">
          <mxGeometry x="-0.9038" y="1" relative="1" as="geometry">
            <mxPoint x="1" y="12" as="offset" />
          </mxGeometry>
        </mxCell>
      </root>
    </mxGraphModel>
  </diagram>
</mxfile>
